# xmcd
#
# Track frame offsets: 
#        150
#        15647
#        29460
#        44050
#        61850
#        78162
#        103692
#        129572
#        146472
#        165452
#        178177
#        192559
#
# Disc length: 2829 seconds
#
# Revision: 3
# Processed by: cddbd v1.5.2PL0 Copyright (c) Steve Scherf et al.
# Submitted via: ExactAudioCopy v1.0b1
#
DISCID=a20b0b0c
DTITLE=Brick - Best Of Brick
DYEAR=1995
DGENRE=Funk
TTITLE0=Dazz
TTITLE1=Music Matic
TTITLE2=Good High
TTITLE3=Ain't Gonna Hurt Nobody
TTITLE4=Living From The Mind
TTITLE5=We Don't Wanna Sit Down, We Wanna Get Down
TTITLE6=Dusic
TTITLE7=Push Push
TTITLE8=All The Way
TTITLE9=Don't Ever Lose Your Love
TTITLE10=Free
TTITLE11=Happy
EXTD=
EXTT0=
EXTT1=
EXTT2=
EXTT3=
EXTT4=
EXTT5=
EXTT6=
EXTT7=
EXTT8=
EXTT9=
EXTT10=
EXTT11=
PLAYORDER=
